<svg xmlns="http://www.w3.org/2000/svg" version="1.1" xmlns:xlink="http://www.w3.org/1999/xlink" xmlns:svgjs="http://svgjs.com/svgjs" width="44" height="44"><svg xmlns="http://www.w3.org/2000/svg" classname="icon icon-tabler icon-tabler-plant" width="44" height="44" viewBox="0 0 24 24" strokewidth="1.5" stroke="#79a367" fill="none" strokelinecap="round" strokelinejoin="round">
      <path d="M0 0h24v24H0z" stroke="none"></path>
      <path d="M7 15h10v4a2 2 0 01-2 2H9a2 2 0 01-2-2v-4zM12 9a6 6 0 00-6-6H3v2a6 6 0 006 6h3M12 11a6 6 0 016-6h3v1a6 6 0 01-6 6h-3"></path>
      <path d="M12 15L12 9"></path>
    </svg><style>@media (prefers-color-scheme: light) { :root { filter: none; } }
@media (prefers-color-scheme: dark) { :root { filter: contrast(1) brightness(1.3); } }
</style></svg>